<svg width="496" height="131" viewBox="0 0 496 131" fill="none" xmlns="http://www.w3.org/2000/svg">
<rect x="1" width="128" height="128" rx="64" fill="#6366F1"/>
<g filter="url(#filter0_d_1_20)">
<path d="M111.5 64C113.709 64 115.516 65.7937 115.342 67.9959C114.924 73.259 113.683 78.4325 111.656 83.3255C109.118 89.4525 105.398 95.0195 100.709 99.7089C96.0195 104.398 90.4525 108.118 84.3255 110.656C78.1986 113.194 71.6318 114.5 65 114.5C58.3682 114.5 51.8014 113.194 45.6745 110.656C39.5475 108.118 33.9805 104.398 29.2911 99.7089C24.6017 95.0195 20.8819 89.4524 18.3441 83.3255C16.3173 78.4325 15.0761 73.259 14.6583 67.9959C14.4835 65.7937 16.2909 64 18.5 64L65 64L111.5 64Z" fill="#8581FA"/>
</g>
<path d="M183.068 99V29.1818H197.83V59.9659H198.75L223.875 29.1818H241.568L215.659 60.4432L241.875 99H224.216L205.091 70.2955L197.83 79.1591V99H183.068ZM263.915 99.9886C260.574 99.9886 257.597 99.4091 254.983 98.25C252.369 97.0682 250.301 95.3295 248.778 93.0341C247.278 90.7159 246.528 87.8295 246.528 84.375C246.528 81.4659 247.063 79.0227 248.131 77.0455C249.199 75.0682 250.653 73.4773 252.494 72.2727C254.335 71.0682 256.426 70.1591 258.767 69.5455C261.131 68.9318 263.608 68.5 266.199 68.25C269.244 67.9318 271.699 67.6364 273.562 67.3636C275.426 67.0682 276.778 66.6364 277.619 66.0682C278.46 65.5 278.881 64.6591 278.881 63.5455V63.3409C278.881 61.1818 278.199 59.5114 276.835 58.3295C275.494 57.1477 273.585 56.5568 271.108 56.5568C268.494 56.5568 266.415 57.1364 264.869 58.2955C263.324 59.4318 262.301 60.8636 261.801 62.5909L248.369 61.5C249.051 58.3182 250.392 55.5682 252.392 53.25C254.392 50.9091 256.972 49.1136 260.131 47.8636C263.313 46.5909 266.994 45.9545 271.176 45.9545C274.085 45.9545 276.869 46.2955 279.528 46.9773C282.21 47.6591 284.585 48.7159 286.653 50.1477C288.744 51.5795 290.392 53.4205 291.597 55.6705C292.801 57.8977 293.403 60.5682 293.403 63.6818V99H279.631V91.7386H279.222C278.381 93.375 277.256 94.8182 275.847 96.0682C274.438 97.2955 272.744 98.2614 270.767 98.9659C268.79 99.6477 266.506 99.9886 263.915 99.9886ZM268.074 89.9659C270.21 89.9659 272.097 89.5455 273.733 88.7045C275.369 87.8409 276.653 86.6818 277.585 85.2273C278.517 83.7727 278.983 82.125 278.983 80.2841V74.7273C278.528 75.0227 277.903 75.2955 277.108 75.5455C276.335 75.7727 275.46 75.9886 274.483 76.1932C273.506 76.375 272.528 76.5455 271.551 76.7045C270.574 76.8409 269.688 76.9659 268.892 77.0795C267.188 77.3295 265.699 77.7273 264.426 78.2727C263.153 78.8182 262.165 79.5568 261.46 80.4886C260.756 81.3977 260.403 82.5341 260.403 83.8977C260.403 85.875 261.119 87.3864 262.551 88.4318C264.006 89.4545 265.847 89.9659 268.074 89.9659ZM304.67 99V46.6364H319.193V99H304.67ZM311.966 39.8864C309.807 39.8864 307.955 39.1705 306.409 37.7386C304.886 36.2841 304.125 34.5455 304.125 32.5227C304.125 30.5227 304.886 28.8068 306.409 27.375C307.955 25.9205 309.807 25.1932 311.966 25.1932C314.125 25.1932 315.966 25.9205 317.489 27.375C319.034 28.8068 319.807 30.5227 319.807 32.5227C319.807 34.5455 319.034 36.2841 317.489 37.7386C315.966 39.1705 314.125 39.8864 311.966 39.8864ZM330.554 99V90.3409L356.19 58.6023V58.2273H331.44V46.6364H373.679V56.0795L349.611 87.0341V87.4091H374.565V99H330.554ZM408.034 100.023C402.648 100.023 398.011 98.9318 394.125 96.75C390.261 94.5455 387.284 91.4318 385.193 87.4091C383.102 83.3636 382.057 78.5795 382.057 73.0568C382.057 67.6705 383.102 62.9432 385.193 58.875C387.284 54.8068 390.227 51.6364 394.023 49.3636C397.841 47.0909 402.318 45.9545 407.455 45.9545C410.909 45.9545 414.125 46.5114 417.102 47.625C420.102 48.7159 422.716 50.3636 424.943 52.5682C427.193 54.7727 428.943 57.5455 430.193 60.8864C431.443 64.2045 432.068 68.0909 432.068 72.5455V76.5341H387.852V67.5341H418.398C418.398 65.4432 417.943 63.5909 417.034 61.9773C416.125 60.3636 414.864 59.1023 413.25 58.1932C411.659 57.2614 409.807 56.7955 407.693 56.7955C405.489 56.7955 403.534 57.3068 401.83 58.3295C400.148 59.3295 398.83 60.6818 397.875 62.3864C396.92 64.0682 396.432 65.9432 396.409 68.0114V76.5682C396.409 79.1591 396.886 81.3977 397.841 83.2841C398.818 85.1705 400.193 86.625 401.966 87.6477C403.739 88.6705 405.841 89.1818 408.273 89.1818C409.886 89.1818 411.364 88.9545 412.705 88.5C414.045 88.0455 415.193 87.3636 416.148 86.4545C417.102 85.5455 417.83 84.4318 418.33 83.1136L431.761 84C431.08 87.2273 429.682 90.0455 427.568 92.4545C425.477 94.8409 422.773 96.7045 419.455 98.0455C416.159 99.3636 412.352 100.023 408.034 100.023ZM456.068 68.7273V99H441.545V46.6364H455.386V55.875H456C457.159 52.8295 459.102 50.4205 461.83 48.6477C464.557 46.8523 467.864 45.9545 471.75 45.9545C475.386 45.9545 478.557 46.75 481.261 48.3409C483.966 49.9318 486.068 52.2045 487.568 55.1591C489.068 58.0909 489.818 61.5909 489.818 65.6591V99H475.295V68.25C475.318 65.0455 474.5 62.5455 472.841 60.75C471.182 58.9318 468.898 58.0227 465.989 58.0227C464.034 58.0227 462.307 58.4432 460.807 59.2841C459.33 60.125 458.17 61.3523 457.33 62.9659C456.511 64.5568 456.091 66.4773 456.068 68.7273Z" fill="white"/>
<defs>
<filter id="filter0_d_1_20" x="0.646629" y="52" width="128.707" height="78.5" filterUnits="userSpaceOnUse" color-interpolation-filters="sRGB">
<feFlood flood-opacity="0" result="BackgroundImageFix"/>
<feColorMatrix in="SourceAlpha" type="matrix" values="0 0 0 0 0 0 0 0 0 0 0 0 0 0 0 0 0 0 127 0" result="hardAlpha"/>
<feOffset dy="2"/>
<feGaussianBlur stdDeviation="7"/>
<feComposite in2="hardAlpha" operator="out"/>
<feColorMatrix type="matrix" values="0 0 0 0 0 0 0 0 0 0 0 0 0 0 0 0 0 0 0.25 0"/>
<feBlend mode="normal" in2="BackgroundImageFix" result="effect1_dropShadow_1_20"/>
<feBlend mode="normal" in="SourceGraphic" in2="effect1_dropShadow_1_20" result="shape"/>
</filter>
</defs>
</svg>
