<svg width="178" height="324" viewBox="0 0 178 324" fill="none" xmlns="http://www.w3.org/2000/svg">
<g filter="url(#filter0_d_30_4)">
<path d="M115.048 105.608C112.711 154.43 96.5865 193.326 83.3469 192.692C70.1072 192.058 55.7758 151.703 58.1136 102.882C60.4514 54.0609 84 1.00366 92.5063 1.41098C100 1.76981 117.386 56.7872 115.048 105.608Z" fill="#22807C"/>
<path d="M133.5 156C126.495 204.373 114.314 240.808 101.196 238.909C88.0775 237.009 77.6784 195.467 84.6829 147.094C91.6875 98.7217 124.956 47.4037 128.639 49.3852C133.5 52 140.505 107.627 133.5 156Z" fill="#2B9F9A"/>
<path d="M98.2856 128.132C111.816 175.099 109.096 217.117 96.3595 220.786C83.6226 224.456 57.0437 190.879 43.5132 143.911C29.9826 96.9444 30.6103 40.4396 43.3471 36.7703C56.084 33.101 84.7551 81.1653 98.2856 128.132Z" fill="#66CC84"/>
<path d="M83.2856 179.132C96.8161 226.099 94.0963 268.117 81.3595 271.786C68.6226 275.456 42.0437 241.879 28.5132 194.911C14.9826 147.944 15.6103 91.4396 28.3471 87.7703C41.084 84.101 69.7551 132.165 83.2856 179.132Z" fill="#2B9F9A"/>
<path d="M141.5 200.158C124.644 246.037 85.8715 270.999 69.6559 265.041C53.4403 259.084 60.5 224 84.7442 171.778C110.5 129 148 89.0005 154.5 92.658C159 97.5005 158.356 154.279 141.5 200.158Z" fill="#14BCA0"/>
</g>
<g filter="url(#filter1_d_30_4)">
<rect x="27" y="195.158" width="120" height="120" rx="8" fill="#27273f"/>
</g>
<defs>
<filter id="filter0_d_30_4" x="14.5791" y="1.40863" width="146.298" height="278.652" filterUnits="userSpaceOnUse" color-interpolation-filters="sRGB">
<feFlood flood-opacity="0" result="BackgroundImageFix"/>
<feColorMatrix in="SourceAlpha" type="matrix" values="0 0 0 0 0 0 0 0 0 0 0 0 0 0 0 0 0 0 127 0" result="hardAlpha"/>
<feOffset dy="4"/>
<feGaussianBlur stdDeviation="2"/>
<feComposite in2="hardAlpha" operator="out"/>
<feColorMatrix type="matrix" values="0 0 0 0 0 0 0 0 0 0 0 0 0 0 0 0 0 0 0.25 0"/>
<feBlend mode="normal" in2="BackgroundImageFix" result="effect1_dropShadow_30_4"/>
<feBlend mode="normal" in="SourceGraphic" in2="effect1_dropShadow_30_4" result="shape"/>
</filter>
<filter id="filter1_d_30_4" x="15" y="179.158" width="144" height="144" filterUnits="userSpaceOnUse" color-interpolation-filters="sRGB">
<feFlood flood-opacity="0" result="BackgroundImageFix"/>
<feColorMatrix in="SourceAlpha" type="matrix" values="0 0 0 0 0 0 0 0 0 0 0 0 0 0 0 0 0 0 127 0" result="hardAlpha"/>
<feOffset dy="-4"/>
<feGaussianBlur stdDeviation="6"/>
<feComposite in2="hardAlpha" operator="out"/>
<feColorMatrix type="matrix" values="0 0 0 0 0 0 0 0 0 0 0 0 0 0 0 0 0 0 0.25 0"/>
<feBlend mode="normal" in2="BackgroundImageFix" result="effect1_dropShadow_30_4"/>
<feBlend mode="normal" in="SourceGraphic" in2="effect1_dropShadow_30_4" result="shape"/>
</filter>
</defs>
</svg>
