<svg width="258" height="261" viewBox="0 0 258 261" fill="none" xmlns="http://www.w3.org/2000/svg">
<rect x="1" width="256" height="256" rx="128" fill="#7C3AED"/>
<g filter="url(#filter0_d_1_14)">
<path d="M222 128C226.418 128 230.033 131.587 229.683 135.992C228.848 146.518 226.365 156.865 222.312 166.651C217.236 178.905 209.797 190.039 200.418 199.418C191.039 208.797 179.905 216.236 167.651 221.312C155.397 226.388 142.264 229 129 229C115.736 229 102.603 226.388 90.349 221.312C78.0951 216.236 66.9609 208.796 57.5822 199.418C48.2035 190.039 40.7639 178.905 35.6882 166.651C31.6347 156.865 29.1522 146.518 28.3167 135.992C27.9671 131.587 31.5817 128 36 128L129 128L222 128Z" fill="#9D6FFF"/>
</g>
<defs>
<filter id="filter0_d_1_14" x="0.293259" y="104" width="257.413" height="157" filterUnits="userSpaceOnUse" color-interpolation-filters="sRGB">
<feFlood flood-opacity="0" result="BackgroundImageFix"/>
<feColorMatrix in="SourceAlpha" type="matrix" values="0 0 0 0 0 0 0 0 0 0 0 0 0 0 0 0 0 0 127 0" result="hardAlpha"/>
<feOffset dy="4"/>
<feGaussianBlur stdDeviation="14"/>
<feComposite in2="hardAlpha" operator="out"/>
<feColorMatrix type="matrix" values="0 0 0 0 0 0 0 0 0 0 0 0 0 0 0 0 0 0 0.25 0"/>
<feBlend mode="normal" in2="BackgroundImageFix" result="effect1_dropShadow_1_14"/>
<feBlend mode="normal" in="SourceGraphic" in2="effect1_dropShadow_1_14" result="shape"/>
</filter>
</defs>
</svg>
